<mxfile host="app.diagrams.net" modified="2023-09-27T16:45:03.667Z" agent="Mozilla/5.0 (Windows NT 10.0; Win64; x64) AppleWebKit/537.36 (KHTML, like Gecko) Chrome/116.0.0.0 Safari/537.36" version="21.8.2" etag="s56El0xvNXkAbwZp9rZN" type="github">
  <diagram name="Page-1" id="WM895spiagycPel2GkKw">
    <mxGraphModel>
      <root>
        <mxCell id="0" />
        <mxCell id="1" parent="0" />
      </root>
    </mxGraphModel>
  </diagram>
</mxfile>
